<svg id="Layer_1" data-name="Layer 1" xmlns="http://www.w3.org/2000/svg" viewBox="0 0 1000 1000"><defs><style>.cls-1{fill:#020202;}</style></defs><path class="cls-1" d="M610.36,374l-27.45-43.69s-3-2.06-10.27-2.06c-7.66,0-10.55,2.15-10.55,2.15v75.63s3.08,2.15,10.36,2.15c7.57,0,10.65-2.15,10.65-2.15V362.64l27.54,43.7s3,2,10.27,2c7.57,0,10.46-2.15,10.46-2.15V330.52s-3.08-2.14-10.64-2.14-10.55,2.14-10.55,2.14V374Z"/><path class="cls-1" d="M698.6,400.55c0-5.23-2.15-7.66-2.15-7.66h-29V373.57h20s2.15-2.24,2.15-7.75c0-5.23-2.15-7.75-2.15-7.75h-20V343.88h26.61s2.24-2.53,2.24-7.75c0-5.42-2.24-7.75-2.24-7.75h-47.8v80h50c.1-.09,2.25-2.52,2.25-7.84"/><path class="cls-1" d="M734.92,408.3c7.56,0,10.55-2.15,10.55-2.15l8.59-35.1,1.4-6.07c.09.56.56,3.45,1.21,6.07l8.59,35.1s2.9,2.15,10.92,2.15c7-.09,10.09-2.15,10.09-2.15l21.94-75.63s-3.17-2.14-10.64-2.14c-7.29,0-10.27,2.14-10.37,2.14L776,369.08a34.89,34.89,0,0,0-1.4,6.17L773.1,369l-9.05-38.37a17.13,17.13,0,0,0-8.31-2.15,18.78,18.78,0,0,0-8.78,2.15l-9.52,38.56c-.66,2.61-1.31,5.79-1.31,6.16-.37-1.31-.65-3.45-1.49-6.26l-10.83-38.37s-3-2.15-10.56-2.15-10.64,2.15-10.64,2.15l21.57,75.63a27.08,27.08,0,0,0,10.74,2"/><path class="cls-1" d="M615.4,427.72c-7,0-9.8,2-9.8,2L596,446.21a50.14,50.14,0,0,0-5.13,12.7,57.87,57.87,0,0,0-5.14-12.7l-9.33-16.44s-3.09-2-9.81-2c-7.84,0-11.3,2.61-11.3,2.61l25.31,43.33V505.5s3,2.14,10.36,2.14c7.56,0,10.55-2.14,10.55-2.14V473.94l25.3-43.7c-.18.09-3.54-2.52-11.39-2.52"/><path class="cls-1" d="M664.89,442.47c11.39,0,17.55,10.37,17.55,25.4s-6.16,25.21-17.55,25.21-17.55-10.27-17.55-25.21,6.16-25.4,17.55-25.4m0,66.11c26.89,0,38.75-15.78,38.75-40.71S691.78,427,664.89,427s-38.75,16-38.75,40.9,11.77,40.71,38.75,40.71"/><path class="cls-1" d="M741.83,463.11h-5.7V443.22a26.43,26.43,0,0,1,6-.65c7.28,0,11.29,4.48,11.29,10.27-.09,4.39-3.26,10.27-11.57,10.27m32.58-11c0-16-11.11-25.12-35-25.12-15.78,0-24.37,4-24.37,4v74.6s3,2.15,10.36,2.15c7.57,0,10.65-2.15,10.65-2.15V478.51h2.7c2,0,3.09,1.22,3.93,3l13.91,24.37a26,26,0,0,0,9.8,2c4.2,0,10.55-1.12,12.79-2.61L760.69,474.5c1.58-.28,13.72-6.63,13.72-22.41"/><path class="cls-1" d="M798.13,427.72c-7.57,0-10.65,2.15-10.65,2.15V505.5s3.08,2.14,10.65,2.14,10.36-2.14,10.36-2.14V468.9l27.08,36.78s3.08,2,10.55,2a34.19,34.19,0,0,0,14.1-2.7l-28.57-39.5,25.58-34.83s-3.46-2.8-12.05-2.8c-7.47,0-10.55,2.06-10.55,2.06l-26.14,35.66V430c.09,0-2.89-2.24-10.36-2.24"/><path class="cls-1" d="M591.13,592.52c-11.11,0-21.94-5.23-25.59-8-4.29,2.14-7.18,8.87-6.06,14.28,3.64,3.64,13.72,9.15,30.06,9.15,23.34,0,33-11.2,33-25.67,0-12.52-7.28-18.49-19-22.41l-11-3.55c-8.78-2.9-12.14-4.11-12.14-7.75,0-3.92,4-6.63,11.2-6.63a33.16,33.16,0,0,1,18,5.42c4.39-1.5,8.22-7.29,6.72-14.66-4.38-2.71-12-6.26-25.11-6.26-20.73,0-31.84,9.15-31.84,25.58,0,11.58,7.47,18.68,17.27,21.76l18.4,5.6c4.57,1.5,6.53,3.46,6.53,6.54,0,4.29-3.64,6.63-10.36,6.63"/><path class="cls-1" d="M659.29,607.18c7.47,0,10.36-2.15,10.36-2.15V542.75h20.54s2.15-2.43,2.15-7.75-2.15-7.75-2.15-7.75H628.1S626,529.77,626,535c0,5.51,2.15,7.75,2.15,7.75h20.45V605s3.08,2.15,10.74,2.15"/><path class="cls-1" d="M716.43,576.64l5.6-13.72c1-2.71,2.71-8.31,3-8.87a66.07,66.07,0,0,0,2.8,8.87l5.7,13.72ZM725,527.16c-7.47,0-10.27,2.05-10.27,2.05l-30.91,75.44s3.36,2.53,11.11,2.53c7.1,0,10.09-2.06,10.09-2.06L710.27,592h29.41l5.6,13.16s2.8,2.06,10.08,2.06c7.75,0,10.83-2.53,10.83-2.53l-30.9-75.44s-2.9-2.05-10.27-2.05"/><path class="cls-1" d="M759.85,527.16s-2.15,2.52-2.15,7.75c0,5.51,2.15,7.75,2.15,7.75H780.2v62.27s3.08,2.15,10.74,2.15c7.47,0,10.36-2.15,10.36-2.15V542.66h20.54s2.15-2.43,2.15-7.75-2.15-7.75-2.15-7.75Z"/><path class="cls-1" d="M854.8,591.77V572.44h20s2.15-2.24,2.15-7.75c0-5.23-2.15-7.75-2.15-7.75h-20V542.75h26.61s2.24-2.52,2.24-7.75c0-5.41-2.24-7.75-2.24-7.75h-47.8v80h50s2.15-2.43,2.15-7.75-2.15-7.66-2.15-7.66H854.8Z"/><path class="cls-1" d="M682.44,688.59c-4.57,1.4-9.15,2.9-13.72,4.2-2.06.56-4,1.13-6.07,1.59A43.65,43.65,0,0,0,652.28,699a35.64,35.64,0,0,1-6.62,3.17,55.17,55.17,0,0,1-15.41,2.52,26.16,26.16,0,0,0-10.46,3c-1.12.47-2.71,1.21-3.08,1.31-4.57-1.5-10.92.37-20,3.55-2.33.74-4.58,1.58-5.88,1.86-6.16,1.4-12.51,2.62-18.68,3.74l-4.48.84c-1.3.28-2.61.46-4,.74a11.81,11.81,0,0,0,0-5.41,8.13,8.13,0,0,1,0-3.08c.09-.47.28-1.12.46-1.87a13.5,13.5,0,0,0,.56-2.15c.19-.65.28-1.21.47-1.86a5.65,5.65,0,0,0,1.78,1.86,5.79,5.79,0,0,0,6.34.1c6.63-4.3,14.66-7.75,24.47-10.55,11-3.08,22.59-4.49,37.81-4.49,9.25,0,16.9-2.7,24.28-5.41,5-1.77,9.89-3.55,15-4.3a6,6,0,0,1,.84-.09c.28.19.47.37.75.56a17,17,0,0,0,5.13,3,25.34,25.34,0,0,0,4.86,1.31Zm25.49-12.79c-4.29-1.12-8.59-.65-12.32-.28s-6.91.75-9.62-.37a9.81,9.81,0,0,1-2.33-1.4A12,12,0,0,0,673.29,671a87.49,87.49,0,0,0-17.18,4.85c-6.81,2.43-13.16,4.67-20.45,4.67-16.24,0-28.94,1.5-41,5-3.18.94-6.17,1.87-9.06,2.9a7.56,7.56,0,0,0,.37-1.59c.56-3.64-1-6.63-2.42-9,10.27-5.7,14.19-8.59,15.12-12.42a6.28,6.28,0,0,0-.93-5.14c-4.48-6.44-3.08-17.64-1.87-27.54.47-3.46.84-6.63,1-9.71a5.8,5.8,0,0,0-11.58-.75c-.19,2.71-.56,5.79-.93,9.06C583.1,641.82,581.7,653.49,586,663c-2.89,2-7.75,4.57-9.61,5.6-1.4.75-2.43,1.31-2.9,1.59a5.4,5.4,0,0,0-2.52,3.55c-.93,3.83,1,7.09,2.43,9.52.37.56.84,1.49,1.12,2a11.71,11.71,0,0,1-2.24,2.43,24.3,24.3,0,0,0-3.64,3.92,15.26,15.26,0,0,0-1.68,2.71c.28-3.36.56-7.19-2.9-11.39-3.08-3.92-7.19-6.07-10.83-7.94-1.21-.65-2.33-1.21-3.45-1.87-8.41-5.13-16.72-10.27-25.12-15.31l-3-1.77c-.84-.47-2.24-1.31-4-2.15-2.52-1.31-8.78-4.58-10.55-6.26-.75-2.52-2.71-7.28-5.51-9.43-2.62-2-5.7-2.24-8.13-2.42-2-.19-3.26-.28-3.82-.94l-2.34-2.33c-4.57-4.67-6.44-6.54-6.81-13.35-.1-1.22,0-2.52,0-3.74.09-5.51.18-12.32-5.23-17.74a20.91,20.91,0,0,0-8-4.76,15.08,15.08,0,0,1-3.74-1.87,15.43,15.43,0,0,1-1-1.21c-1.78-2-4.39-4.95-8.22-6.26-8.78-3.08-18.77-3.36-28.29-3.36L133.25,580a59.65,59.65,0,0,0-6.45.46c-.46.1-.93.1-1.49.19,0-.47-.09-.94-.09-1.59V560.86a36.34,36.34,0,0,1,6.53-3.36,42.32,42.32,0,0,0,6.17-3.17,54.69,54.69,0,0,0,8.87-7.66c1.68-1.68,3.26-3.17,4.85-4.57a44.22,44.22,0,0,1,7.28-4.39,50.73,50.73,0,0,0,9.06-5.6,25.05,25.05,0,0,0,6-8.13,20.66,20.66,0,0,1,2.7-4.2,24,24,0,0,1,5-3.27c5.14-2.89,14.75-8.31,9.71-20.26a31.51,31.51,0,0,0-1.4-3.08c-1.4-3-1.68-3.55-1.21-6.63.09-.56.19-1,.28-1.58.75-4,2.24-12.24-6-16.53a12.57,12.57,0,0,0-4-1.31,31.91,31.91,0,0,0-.19-7.09c.47-.19,1-.47,2-.84,20.92-8.31,37.63-11.21,52.48-9.06a23,23,0,0,0,7.84-.56,12.24,12.24,0,0,1,4.2-.47l18,3.46c5.88,1.12,7.28,1.77,10.83,5,8,7.37,15.22,4.76,20.54,2.89a31.09,31.09,0,0,1,6.35-1.77,55.91,55.91,0,0,1,13.07.28c2.43.28,4.95.47,7.47.56,4.76.19,9.34-1.49,13.35-2.9,1.22-.46,2.34-.84,3.55-1.21a48,48,0,0,1,6.63-1.31c1.59-.28,3.27-.46,4.95-.84,4.76-1,6.54-4.2,7.66-6.07a7.71,7.71,0,0,1,.74-1.12c1.12-1.49,3.27-2.8,5.42-4.1l1.31-.75a47.71,47.71,0,0,0,9.8-7.38,19.06,19.06,0,0,1,3.36-.09c2.52.09,5.7.28,8.78-1,11.48-5,7.65-18.48,5.6-25.67a28.24,28.24,0,0,1-1.21-5.23c-.1-1.87,1.3-3.74,3.54-6.73,2.71-3.45,6.17-7.84,6.07-14C400.94,376,397.76,368.52,391,368a11.65,11.65,0,0,0-5.79,1.31,8.1,8.1,0,0,1-.66-2.33,28.26,28.26,0,0,1,4.3-3.18c.56-.37,1-.65,1.4-.93a80.85,80.85,0,0,1,7.65-4.39c4.39-2.33,9-4.76,12.89-8.22,1.31-1.21,2.61-2.33,3.83-3.45a70.18,70.18,0,0,1,7.65-6.44c3.83-2.52,4.39-7.19,4.95-10.93a12.23,12.23,0,0,1,.47-2.61c2.05-5.14,8.59-10.37,14.47-15,2.43-2,4.76-3.83,6.82-5.7,1.12-1,2.24-2.05,3.27-3.08,4.94-4.58,9.52-9,15-12.33,4.39-2.7,10.92-6.53,16.34-8.58,6.07-2.34,8.12-2.15,15.59-1.78l1.49.09c15.22.84,30.82.47,45.94.1,7.38-.19,14.75-.38,22-.38,2.61,0,6-.46,9.52-.84,6.07-.74,17.46-2.14,20.35.38.19.09.47.37.56,1.3a12.72,12.72,0,0,1-.84,1.59c-.93,1.78-2.33,4.11-2.33,7.28a12.4,12.4,0,0,0,2.52,7.19,4.56,4.56,0,0,0,.47.56,45,45,0,0,1-1.12,4.39A41.77,41.77,0,0,0,596,311.2a5.82,5.82,0,0,0,5.61,6,5.75,5.75,0,0,0,6-5.6,33.75,33.75,0,0,1,1.4-6.63,41.57,41.57,0,0,0,1.31-5.41,11.69,11.69,0,0,0-2.24-9.06c-.19-.38-.56-.84-.56-.75.09-.28.56-1.12.84-1.68a14.43,14.43,0,0,0,2.24-7.38,13.17,13.17,0,0,0-4.48-9.89c-6.82-5.88-18.77-4.39-29.32-3.08-3.18.37-6.16.74-8.22.74-7.37.1-14.84.28-22.22.47-14.84.37-30.25.75-45-.09l-1.5-.1c-7.93-.46-11.95-.65-20.35,2.43a113.41,113.41,0,0,0-18.39,9.62c-6.45,4-11.77,9-16.9,13.72-1,1-2.15,2-3.18,3-1.68,1.59-3.92,3.27-6.16,5.14-6.91,5.5-14.75,11.76-17.93,19.79a25.61,25.61,0,0,0-1.21,5.42,17.42,17.42,0,0,1-.56,3.26,79.79,79.79,0,0,0-8.41,7.1l-3.54,3.27c-3,2.61-6.73,4.57-10.74,6.72a86.47,86.47,0,0,0-8.59,4.95l-1.21.75c-3.27,2.05-7.75,4.94-9.25,9.33-1.77,5.32,1.4,14.66,7.19,17.37,3.55,1.68,6.72.47,8.68-.47a3.64,3.64,0,0,1,.28,1.31c.1,1.77-1.3,3.64-3.54,6.54-2.8,3.64-6.35,8.12-6,14.56a34.58,34.58,0,0,0,1.68,7.66c1.22,4.11,3.18,10.92.94,11.95a19,19,0,0,1-3.46.09c-3.36-.19-8.31-.47-12.14,3.46a39.87,39.87,0,0,1-7.75,5.69l-1.21.75c-2.8,1.68-6.26,3.83-8.78,7.19a23.3,23.3,0,0,0-1.4,2.24l-.28.56c-1.31.28-2.61.47-3.92.65a60.91,60.91,0,0,0-8.31,1.68c-1.31.47-2.71.94-4,1.4-3.18,1.12-6.35,2.34-8.87,2.24-2.24-.09-4.58-.28-6.82-.56-5-.46-10.18-.93-15.69-.18a40.08,40.08,0,0,0-8.68,2.33c-4.85,1.78-6.07,2.06-8.87-.56-5.51-5-9.15-6.44-16.53-7.84l-18-3.36a21.34,21.34,0,0,0-8.59.46,17.05,17.05,0,0,1-3.92.47c-16.9-2.52-35.48.65-58.45,9.71-7.65,3-9.89,6.16-9.15,12.7a21.25,21.25,0,0,1,0,6.07c-.37,2.71-.46,6.16,1.87,8.78s5.42,2.52,7.1,2.52a5.58,5.58,0,0,1,1.4.09.89.89,0,0,1,.37.19c.28.65-.19,2.8-.37,4a14.74,14.74,0,0,1-.38,2c-.93,6.44.47,9.62,2.15,13.26.38.75.75,1.68,1.22,2.61.93,2.15,1,2.53-4.67,5.79a31.07,31.07,0,0,0-7.57,5.33,27.19,27.19,0,0,0-4.57,6.81c-1.12,2-2.05,3.74-3.27,4.76a39.52,39.52,0,0,1-7,4.21,51.56,51.56,0,0,0-9.15,5.69c-2.06,1.68-3.92,3.46-5.7,5.23a54.48,54.48,0,0,1-7.09,6.25,32.86,32.86,0,0,1-4.48,2.15c-4.67,2.06-9.9,4.39-12.61,8.69a5.87,5.87,0,0,0-.84,3.08v20.44c0,3.83.47,8.13,3.55,10.93,3.27,2.89,7.28,2.43,10.83,2a44.19,44.19,0,0,1,5-.37l292.71.19c8.87,0,17.37.18,24.46,2.7.94.28,2.34,2,3.27,3a19.15,19.15,0,0,0,2.34,2.43,26,26,0,0,0,6.81,3.73,12,12,0,0,1,4.11,2.15c1.87,1.87,2,4.86,1.87,9.43v4.48c.56,11.21,4.95,15.69,10.08,20.92.66.65,1.4,1.4,2.15,2.24,3.64,3.83,8.22,4.2,11.3,4.48.65.09,1.58.09,2,.19a14.51,14.51,0,0,1,1.49,3.36c1,5,7.1,8.5,16.43,13.26a36.13,36.13,0,0,1,3.27,1.77l2.9,1.78c8.4,5.13,16.71,10.27,25.11,15.31,1.31.74,2.71,1.49,4.11,2.24,2.9,1.49,5.6,3,7.19,5,.56.65.56.74.28,3.73a63.2,63.2,0,0,1-1.77,10.46c-.1.47-.28.93-.38,1.4a24.76,24.76,0,0,0-.93,3.92,21,21,0,0,0,.09,6.35,13.37,13.37,0,0,0-2.05,1.68,12.85,12.85,0,0,0-1.68,2.24l-.56.75a9,9,0,0,0-1.68,7.19,6.72,6.72,0,0,0,3.55,4.57,7.32,7.32,0,0,0,3.64.84,13.26,13.26,0,0,0,4.29-.84l.47-.09c3.83-.84,7.66-1.59,11.58-2.33l4.39-.84c6.34-1.13,12.88-2.34,19.32-3.83,1.87-.47,4.2-1.22,7-2.15,3.45-1.21,10.73-3.64,12.6-3.46,4.39,1.41,8.31-.28,11.39-1.77,2.15-.93,4.11-1.87,6.16-2a64.18,64.18,0,0,0,18.49-3.08,46.7,46.7,0,0,0,8.68-4.11,30.13,30.13,0,0,1,7.57-3.45c2.14-.56,4.2-1.12,6.35-1.78,4.76-1.31,9.43-2.8,14.09-4.29l6.17-2c6.53-2.06,20.07-6.17,20.16-16.25a6,6,0,0,0-4.48-5.51"/><path class="cls-1" d="M691,705a.81.81,0,0,0-.18.56,1,1,0,0,0,.18.65h3.18v9.52a2,2,0,0,0,1.68,0v-9.52h3.17a.94.94,0,0,0,.19-.65.79.79,0,0,0-.19-.56Z"/><path class="cls-1" d="M709.89,705c-.65,0-.84.18-.84.18l-2.8,7.1c-.09.37-.37,1.12-.37,1.21l-.38-1.21-2.8-7.1s-.18-.18-.84-.18a1.65,1.65,0,0,0-.84.18l-.84,10.55a2,2,0,0,0,1.68,0l.47-6.44c0-.28.09-1.12.09-1.12s.28.75.38,1.12l2.42,6.07a1.43,1.43,0,0,0,.66.19,1.51,1.51,0,0,0,.75-.19l2.42-6.07c.1-.28.38-1,.38-1.12l.09,1.12.47,6.44s.18.19.84.19.84-.19.84-.19l-.84-10.55a3.11,3.11,0,0,0-.94-.18"/></svg>